<?xml version="1.0" encoding="utf-8"?>
<!DOCTYPE svg PUBLIC "-//W3C//DTD SVG 1.0//EN" "http://www.w3.org/TR/2001/REC-SVG-20010904/DTD/svg10.dtd">
<svg version="1.0" xmlns="http://www.w3.org/2000/svg" width="254px" height="237px" viewBox="0 0 254 237" preserveAspectRatio="xMidYMid meet">
 <g fill="#f5f5f6">
  <path d="M0 118.50 l0 -118.50 127 0 127 0 0 118.50 0 118.50 -127 0 -127 0 0 -118.50z"/>
 </g>
 <g fill="#EFF6FF">
  <path d="M110.50 223.30 c-21.60 -5.15 -35.70 -10.95 -46 -19 -11.95 -9.35 -17.70 -15 -24.65 -24.25 -8.85 -11.90 -11.60 -17.20 -15.35 -29.55 -1.35 -4.55 -3.05 -10.05 -3.80 -12.25 -1.25 -3.70 -1.40 -4.75 -1.60 -13.75 -0.35 -18.90 -0.15 -29.70 0.60 -30.95 0.20 -0.30 0.25 -0.75 0.05 -1 -0.15 -0.25 -0.05 -0.60 0.20 -0.75 0.25 -0.20 0.60 -1.25 0.80 -2.45 0.15 -1.15 0.65 -2.80 1.05 -3.65 0.35 -0.85 0.75 -2 0.85 -2.50 0.05 -0.55 0.30 -1.25 0.50 -1.55 0.25 -0.35 0.25 -0.65 0 -0.65 -0.20 0 -0.10 -0.20 0.30 -0.45 0.35 -0.25 0.65 -1 0.70 -1.70 0 -0.70 0.30 -1.40 0.65 -1.55 0.40 -0.15 0.70 -0.65 0.70 -1.15 0 -0.50 0.80 -2.25 1.70 -3.90 1.80 -3.15 6.40 -12.30 6.45 -12.75 0 -0.15 0.35 -0.60 0.80 -1 0.40 -0.40 1.60 -2.10 2.65 -3.75 1.10 -1.65 2.55 -3.65 3.30 -4.50 0.75 -0.80 1.70 -2.05 2.15 -2.75 0.80 -1.15 5.85 -6.50 6.25 -6.50 0.05 0 1 -0.95 2.05 -2.10 3.30 -3.65 8.85 -9.10 10.15 -10 0.70 -0.45 2.90 -2 4.85 -3.35 2 -1.40 5.20 -3.30 7.15 -4.25 1.95 -0.90 3.85 -2 4.30 -2.35 0.80 -0.70 3.10 -1.55 10.20 -4.05 3.70 -1.25 5.80 -2.05 10.25 -3.95 3.65 -1.55 9.65 -3 13.10 -3.15 0.85 0 1.45 -0.20 1.35 -0.40 -0.30 -0.45 -0.50 -0.45 16.05 -0.60 8 -0.10 15 0.05 15.65 0.25 1 0.40 2.75 0.70 7.35 1.20 0.55 0.05 1 0.15 1 0.20 0 0.15 0.30 0.20 2.75 0.70 2.80 0.60 6.85 2 8.35 2.85 0.90 0.55 3.50 1.40 5.75 1.95 4.60 1.10 13.15 5.05 17.20 7.90 0.85 0.65 3 1.90 4.75 2.80 1.75 0.95 3.85 2.55 4.70 3.55 1.35 1.70 1.50 2.25 1.50 5.45 0 4.55 -1 6.30 -7.35 12.95 -2.55 2.70 -4.90 5.15 -5.20 5.50 -1.15 1.25 -3.95 3.65 -5.20 4.30 -1.65 0.90 -7.15 0.45 -8.55 -0.75 -1.25 -1 -7.80 -4 -11.60 -5.30 -2.05 -0.75 -4.50 -1.75 -5.45 -2.25 -3.20 -1.80 -5.15 -2.80 -5.65 -2.85 -0.25 -0.05 -0.60 -0.15 -0.75 -0.20 -1.75 -0.75 -25.70 -1.05 -30.25 -0.40 -2.70 0.40 -4.45 0.70 -4.60 0.85 -0.10 0.10 -0.30 0.15 -0.50 0.20 -0.25 0.05 -1.10 0.45 -1.95 0.95 -0.85 0.45 -1.70 0.65 -1.90 0.50 -0.15 -0.20 -0.30 -0.10 -0.30 0.20 0 0.25 -0.30 0.50 -0.60 0.50 -0.35 0 -1.45 0.35 -2.40 0.80 -0.95 0.45 -3.10 1.30 -4.75 1.85 -3.20 1.15 -8.85 3.90 -9.25 4.55 -0.15 0.25 -1.10 0.75 -2.10 1.15 -1 0.45 -2.10 1.10 -2.50 1.45 -0.35 0.40 -1.65 1.30 -2.85 2.05 -2.80 1.80 -10.05 9.10 -10.05 10.20 0 0.25 -0.35 0.60 -0.75 0.80 -0.40 0.15 -0.75 0.60 -0.75 1 0 0.40 -0.15 0.80 -0.40 0.90 -0.55 0.25 -7.60 10.80 -7.60 11.35 0 0.55 -2.50 5.95 -5.50 12.05 -1.50 3.10 -1.60 3.70 -2.10 11.75 -0.70 11.20 -0.70 12.95 -0.05 19.75 0.45 5.05 0.80 6.40 2.80 11.10 3.15 7.35 4.85 10.60 9.45 18.25 7.80 12.90 17.05 19.65 37.95 27.60 7.65 2.90 12.70 3.75 21.95 3.75 9.45 -0.05 17.65 -1.10 24.20 -3.20 6.35 -2.05 16.10 -6.25 18.15 -7.80 2.80 -2.10 3.15 -3.35 3.60 -12.80 0.55 -12.15 1.30 -13.40 10.55 -17.80 2.90 -1.40 6.50 -2.85 8 -3.25 1.50 -0.45 4.05 -1.25 5.60 -1.80 5.35 -1.95 10.60 -1.10 12.15 2 1.20 2.30 1.85 19.40 1.35 35.25 -0.40 11.65 -0.50 12.65 -1.50 14.30 -1.15 1.85 -12.45 10.75 -17.25 13.50 -9.05 5.25 -11.25 6.40 -17.60 9.05 -4.50 1.90 -10.50 3.85 -16.75 5.50 l-9.75 2.55 -18 0.15 c-13.45 0.05 -18.70 -0.05 -20.75 -0.55z"/>
  <path d="M140.65 156.95 c-0.90 -0.25 -3.15 -1.50 -5 -2.75 -3.35 -2.30 -4.35 -3.25 -10.65 -9.95 -1.80 -1.95 -4.55 -4.60 -6.10 -5.95 -1.60 -1.35 -2.75 -2.65 -2.60 -2.90 0.15 -0.25 -0.10 -0.60 -0.60 -0.70 -0.55 -0.15 -1.95 -1.60 -3.20 -3.25 -1.25 -1.65 -4.15 -4.75 -6.50 -6.85 -2.30 -2.10 -6.20 -5.75 -8.55 -8.15 -3.90 -3.80 -4.40 -4.50 -4.70 -6.55 -0.40 -2.55 0 -5.05 0.90 -6.05 0.35 -0.30 1.20 -1.40 1.95 -2.35 1.80 -2.30 5.10 -5.90 4.65 -5.10 -0.15 0.30 -0.05 0.60 0.20 0.60 0.30 0 0.55 -0.25 0.55 -0.55 0 -0.80 3.60 -4.45 4.35 -4.45 0.40 0 0.80 -0.35 1 -0.75 0.45 -1.25 5.15 -3.40 7.40 -3.40 2.80 -0.05 5.25 0.30 5.25 0.70 0 0.20 0.50 0.55 1.05 0.70 0.60 0.20 1.75 1.10 2.55 2.05 0.80 0.90 1.75 1.60 2.05 1.55 0.35 -0.05 0.55 0.20 0.50 0.50 -0.10 0.35 0.10 0.60 0.45 0.50 0.35 -0.05 0.65 0.15 0.65 0.40 0.20 1.20 0.90 2.20 1.40 1.90 0.25 -0.15 0.35 -0.05 0.15 0.25 -0.15 0.30 1.25 1.90 3.20 3.65 1.90 1.75 3.35 3.25 3.25 3.35 -0.45 0.45 0.80 1.55 1.50 1.30 0.35 -0.15 0.80 0.15 1 0.70 0.15 0.55 1.85 2.50 3.80 4.30 3.05 2.90 3.70 3.30 5.40 3.30 2.15 0 5.05 -0.90 5.05 -1.55 0 -0.25 0.20 -0.45 0.45 -0.45 1.10 0 6.55 -3.70 9.45 -6.40 1.70 -1.60 3.10 -2.85 3.10 -2.75 0 0.15 0.65 -0.25 1.45 -0.80 0.80 -0.60 1.70 -1.05 2 -1.05 0.30 0 0.55 -0.20 0.55 -0.45 0 -0.25 0.70 -0.70 1.50 -1.05 0.85 -0.35 1.50 -0.75 1.50 -0.95 0 -0.20 0.80 -0.75 1.75 -1.25 0.95 -0.55 1.75 -1.10 1.75 -1.30 0 -0.20 0.40 -0.50 0.90 -0.70 1.55 -0.55 4.25 -2.35 7.85 -5.35 2 -1.60 3.75 -2.95 3.90 -2.95 0.20 0 1.05 -0.60 1.90 -1.35 2.60 -2.40 11 -7.35 13.45 -8 0.40 -0.10 1.90 -0.20 3.30 -0.25 2.90 -0.05 4.85 0.85 8.50 3.80 2.55 2.10 9.05 10.30 10.75 13.65 1.70 3.30 1 9.20 -1.25 10.50 -1 0.60 -4.35 3.25 -5.65 4.50 -0.65 0.65 -1.30 1.15 -1.40 1.15 -0.15 0 -0.45 0 -0.70 0 -0.25 0 -1.65 0.95 -3.20 2.15 -1.50 1.15 -3.25 2.45 -3.90 2.85 -0.60 0.40 -2.25 1.80 -3.65 3.10 -1.40 1.30 -2.95 2.50 -3.40 2.65 -0.50 0.20 -0.90 0.55 -0.90 0.80 0 0.25 -0.30 0.45 -0.70 0.45 -0.40 0 -1.80 0.75 -3.20 1.70 -1.35 0.90 -3.60 2.20 -4.90 2.80 -3.10 1.50 -8.95 5.20 -10.60 6.75 -0.65 0.65 -1.80 1.45 -2.55 1.85 -0.70 0.35 -1.50 0.95 -1.70 1.30 -0.25 0.35 -0.60 0.50 -0.80 0.35 -0.25 -0.10 -0.80 0.20 -1.30 0.75 -0.50 0.55 -1.15 1 -1.50 1 -0.30 0 -0.85 0.55 -1.15 1.25 -0.30 0.70 -0.75 1.25 -0.95 1.20 -1.05 -0.20 -1.60 0.15 -1.90 1.10 -0.20 0.60 -0.60 0.90 -1.05 0.75 -0.35 -0.15 -0.90 0.20 -1.20 0.75 -0.30 0.55 -0.75 0.85 -1.05 0.70 -0.25 -0.20 -0.45 0 -0.45 0.35 0 0.35 -1.65 1.55 -3.60 2.60 -2 1.05 -4.55 2.55 -5.65 3.30 -1.10 0.75 -3.25 2 -4.75 2.75 -1.50 0.75 -3.10 1.65 -3.50 2 -0.55 0.50 -6.05 2.45 -6.20 2.20 -0.05 0 -0.75 -0.25 -1.65 -0.50z"/>
 </g>
 <g fill="#e6e6e7">
  <path d="M110.50 223.30 c-21.60 -5.15 -35.70 -10.95 -46 -19 -11.95 -9.35 -17.70 -15 -24.65 -24.25 -8.85 -11.90 -11.60 -17.20 -15.35 -29.55 -1.35 -4.55 -3.05 -10.05 -3.80 -12.25 -1.55 -4.75 -2.20 -14.55 -1.25 -18.10 0.30 -1.15 0.65 -5.55 0.75 -9.75 0.15 -5.05 0.45 -8.60 1 -10.40 0.45 -1.50 1.25 -5.35 1.80 -8.50 1.40 -7.80 3.40 -13.40 7.85 -22 5.95 -11.40 11.10 -18.75 19.25 -27.25 10.70 -11.05 16.60 -15.55 28.65 -21.65 3.85 -1.95 9.35 -4.40 12.25 -5.40 2.90 -1 6.50 -2.30 8 -2.80 1.50 -0.55 3.75 -1.20 5 -1.40 1.25 -0.25 5.20 -1 8.75 -1.75 6.25 -1.30 6.90 -1.35 18.50 -1.10 8.05 0.20 13 0.50 15 1 1.65 0.40 5.50 1.30 8.55 2 3.10 0.65 6.35 1.60 7.25 2.05 0.90 0.45 3.85 1.45 6.60 2.30 6.05 1.80 17.05 7.50 23.75 12.30 2.90 2 3.85 5.75 2.30 8.95 -1.05 2.30 -12.70 15.75 -14.80 17.10 -2.90 1.95 -4.85 1.60 -12.60 -2.40 -3.80 -1.95 -8.05 -3.90 -9.50 -4.30 -1.40 -0.40 -3.45 -1.25 -4.55 -1.90 -2.80 -1.60 -6.30 -2.20 -15.50 -2.70 -13 -0.70 -24.35 0.15 -29.50 2.25 -1.65 0.70 -4.25 1.70 -5.75 2.30 -13.25 4.95 -26.30 14.70 -32.55 24.40 -1.05 1.70 -2.35 3.50 -2.85 4 -1.55 1.70 -4.15 6.35 -6.15 11.10 -1.10 2.55 -2.65 6 -3.45 7.65 -1.90 3.85 -2.35 6.40 -2.75 14.85 -0.15 3.75 -0.40 7.40 -0.55 8.15 -0.10 0.70 0 1.70 0.25 2.15 0.45 0.75 0.55 0.75 0.60 -0.15 0.10 -1.80 0.95 3.40 1.40 8.75 0.40 4.60 0.70 5.90 2.70 10.60 3.15 7.35 4.85 10.60 9.45 18.25 7.80 12.90 17.05 19.65 37.95 27.60 7.65 2.90 12.70 3.75 21.95 3.75 9.45 -0.05 17.65 -1.10 24.20 -3.20 6.35 -2.05 16.10 -6.25 18.15 -7.80 2.80 -2.10 3.15 -3.35 3.60 -12.80 0.55 -12.15 1.30 -13.40 10.55 -17.80 2.90 -1.40 6.50 -2.85 8 -3.25 1.50 -0.45 4.05 -1.25 5.60 -1.80 5.35 -1.95 10.60 -1.10 12.15 2 1.20 2.30 1.85 19.40 1.35 35.25 -0.40 11.65 -0.50 12.65 -1.50 14.30 -1.15 1.85 -12.45 10.75 -17.25 13.50 -9.05 5.25 -11.25 6.40 -17.60 9.05 -4.50 1.90 -10.50 3.85 -16.75 5.50 l-9.75 2.55 -18 0.15 c-13.45 0.05 -18.70 -0.05 -20.75 -0.55z"/>
 </g>
 <g fill="#DBEAFE">
  <path d="M112.85 223 c-1.35 -0.25 -3.95 -0.90 -5.75 -1.45 -1.85 -0.55 -5.60 -1.55 -8.40 -2.20 -17.35 -4.25 -31.90 -12.65 -47.35 -27.35 -6.50 -6.15 -16.05 -18.85 -20.20 -26.85 -3.30 -6.30 -4.80 -10.70 -10.40 -30.40 -1.40 -4.85 -1.10 -29.50 0.45 -34.75 0.45 -1.50 1.25 -5.35 1.80 -8.50 1.40 -7.80 3.40 -13.40 7.85 -22 5.95 -11.40 11.10 -18.75 19.25 -27.25 10.70 -11.05 16.60 -15.55 28.65 -21.65 3.85 -1.95 9.35 -4.40 12.25 -5.40 2.90 -1 6.50 -2.30 8 -2.80 1.50 -0.55 3.75 -1.20 5 -1.40 1.25 -0.25 5.20 -1 8.75 -1.75 6.25 -1.30 6.90 -1.35 18.50 -1.10 8.05 0.20 13 0.50 15 1 1.65 0.40 5.50 1.30 8.55 2 3.10 0.65 6.35 1.60 7.25 2.05 0.90 0.45 3.85 1.45 6.60 2.30 6.05 1.80 17.05 7.50 23.75 12.30 2.90 2 3.85 5.75 2.30 8.95 -1.05 2.30 -12.70 15.75 -14.80 17.10 -2.90 1.95 -4.85 1.60 -12.60 -2.40 -3.80 -1.95 -8.05 -3.90 -9.50 -4.30 -1.40 -0.40 -3.45 -1.25 -4.55 -1.90 -2.80 -1.60 -6.30 -2.20 -15.50 -2.70 -13 -0.70 -24.35 0.15 -29.50 2.25 -1.65 0.70 -4.25 1.70 -5.75 2.30 -13.25 4.95 -26.30 14.70 -32.55 24.40 -1.05 1.70 -2.35 3.50 -2.85 4 -1.55 1.70 -4.15 6.35 -6.15 11.10 -1.10 2.55 -2.65 6 -3.45 7.65 -1.90 3.85 -2.35 6.40 -2.75 14.85 -0.15 3.75 -0.40 7.40 -0.55 8.10 -0.10 0.75 0 1.75 0.30 2.30 0.30 0.55 0.75 3.95 1 7.55 0.50 7.25 0.55 7.35 6.55 19.70 4.45 9.15 8.80 15.80 13.25 20.35 12.70 12.95 38.30 23.20 55.45 22.20 7.35 -0.40 18.05 -2.10 22.80 -3.60 4.30 -1.35 14.35 -5.45 17.45 -7.15 3.70 -2 4.45 -4.35 4.50 -14.30 0 -10.70 0.95 -12.45 8.40 -16.20 2.65 -1.35 6.45 -2.90 8.35 -3.50 1.95 -0.60 4.90 -1.65 6.60 -2.30 5.20 -2.10 9.75 -1.30 11.55 1.95 0.75 1.40 0.85 3.75 0.85 23.80 0 20.90 -0.05 22.35 -0.95 24.20 -1.60 3.20 -14.40 12.45 -24.80 17.95 -9 4.70 -16.35 7.50 -27.75 10.45 l-10 2.60 -16.25 0.10 c-8.95 0.05 -17.35 -0.05 -18.65 -0.30z"/>
  <path d="M140.15 154.80 c-3.10 -1.40 -7 -4.85 -15.40 -13.65 -4.65 -4.90 -13 -13.40 -18.55 -18.90 -13.90 -13.85 -13.95 -14.10 -5.30 -22.90 5.40 -5.50 10.05 -9.05 12.60 -9.60 0.80 -0.15 2.35 -0.05 3.45 0.25 1.75 0.45 4 2.50 14.70 13.25 9.15 9.30 12.90 12.75 13.75 12.75 2.05 0 10.10 -4.85 17.35 -10.55 1.65 -1.25 6.25 -4.45 10.25 -7.10 6.15 -4.05 13.90 -9.45 15.75 -11 2.20 -1.85 10 -7.10 11.95 -8.10 2.65 -1.35 6.20 -1.65 8.55 -0.75 2 0.75 7.20 6.20 10.10 10.50 1.35 2.05 3.10 4.65 3.80 5.70 2.35 3.35 1.40 6.85 -2.60 9.65 -1.05 0.75 -4 2.85 -6.50 4.65 -2.50 1.80 -5.35 3.70 -6.30 4.30 -1 0.55 -2.85 1.95 -4.15 3.10 -1.30 1.15 -4.25 3.20 -6.60 4.65 -2.35 1.40 -6.20 3.80 -8.60 5.40 -2.40 1.55 -5.65 3.65 -7.25 4.65 -1.60 1.05 -4.60 3.15 -6.65 4.65 -3.40 2.50 -7 5.05 -12 8.40 -0.95 0.65 -2.75 1.80 -4 2.55 -1.25 0.75 -3.35 2.15 -4.75 3.15 -2.75 1.90 -8.80 4.95 -10.75 5.35 -0.70 0.15 -1.95 -0.05 -2.85 -0.40z"/>
 </g>
 <g fill="#dadbdc">
  <path d="M112.85 223 c-1.35 -0.25 -3.95 -0.90 -5.75 -1.45 -1.85 -0.55 -5.60 -1.55 -8.40 -2.20 -13.20 -3.25 -25.95 -9.50 -36.55 -17.95 -9.75 -7.80 -15.15 -13.30 -21.80 -22.20 -9.35 -12.45 -12.10 -18.30 -17.60 -37.45 -0.70 -2.45 -1.60 -5.55 -1.95 -6.85 -0.90 -3.10 -1.50 -15.40 -0.85 -16.40 0.45 -0.60 0.55 -0.60 0.55 -0.05 0 0.55 0.15 0.55 0.75 0.05 0.60 -0.50 0.75 -1.80 0.75 -5.75 0 -3.85 0.30 -6.35 1.20 -9.85 0.70 -2.60 1.45 -6.50 1.75 -8.70 1.05 -8.30 2.75 -13.15 8.55 -24.55 5.80 -11.35 9.90 -17.30 17.95 -25.70 6.20 -6.55 12.60 -11.95 19.30 -16.25 5.05 -3.25 15.90 -8.55 20.75 -10.20 1.80 -0.60 4.70 -1.70 6.50 -2.50 2 -0.90 5 -1.65 7.75 -2 2.50 -0.35 7.40 -1.15 10.95 -1.80 7.50 -1.40 17.25 -1.60 23.30 -0.45 2.05 0.40 6.80 1.20 10.50 1.80 3.90 0.60 8.20 1.60 10.25 2.45 1.95 0.75 4.85 1.75 6.50 2.25 3.35 0.95 15.85 7.15 20.65 10.25 3.75 2.45 5.25 4.55 4.80 6.75 -0.40 1.90 -1.15 3 -5.75 8.75 -5.05 6.25 -8.35 9.40 -10.20 9.75 -1.50 0.30 -4.75 -1.15 -12 -5.25 -1.35 -0.75 -3.65 -1.75 -5.05 -2.15 -1.40 -0.40 -3.70 -1.35 -5.10 -2.05 -1.85 -0.95 -4.55 -1.60 -9.45 -2.35 -14.45 -2.15 -32.15 -0.90 -40.75 2.85 -2.10 0.95 -4.10 1.70 -4.40 1.70 -0.60 0 -4.35 1.80 -10.25 5 -4.55 2.45 -10.05 6.70 -14.75 11.45 -6.15 6.15 -14.45 18.50 -16.75 24.85 -0.50 1.35 -1.65 4.05 -2.55 5.95 -1.45 3.15 -1.70 4.35 -2.40 12 -0.45 4.70 -0.90 9.75 -1.05 11.30 -0.25 2.35 -0.15 2.90 0.75 3.70 0.95 0.90 1 0.90 1 -0.05 0.05 -0.85 0.05 -0.90 0.55 -0.10 0.25 0.50 0.70 3.85 0.95 7.45 0.50 7.25 0.55 7.35 6.55 19.70 4.45 9.15 8.80 15.80 13.25 20.35 12.70 12.95 38.30 23.20 55.45 22.20 7.35 -0.40 18.05 -2.10 22.80 -3.60 4.30 -1.35 14.35 -5.45 17.45 -7.15 3.70 -2 4.45 -4.35 4.50 -14.30 0 -10.70 0.95 -12.45 8.40 -16.20 2.65 -1.35 6.45 -2.90 8.35 -3.50 1.95 -0.60 4.90 -1.65 6.60 -2.30 5.20 -2.10 9.75 -1.30 11.55 1.95 0.75 1.40 0.85 3.75 0.85 23.80 0 20.90 -0.05 22.35 -0.95 24.20 -1.60 3.20 -14.40 12.45 -24.80 17.95 -9 4.70 -16.35 7.50 -27.75 10.45 l-10 2.60 -16.25 0.10 c-8.95 0.05 -17.35 -0.05 -18.65 -0.30z"/>
 </g>
 <g fill="#cfcfd0">
  <path d="M113.10 222.45 c-1.45 -0.25 -3.90 -0.85 -5.50 -1.40 -1.55 -0.50 -4.20 -1.20 -5.85 -1.55 -11.30 -2.30 -27.95 -9.80 -36.25 -16.30 -1.70 -1.35 -3.70 -2.90 -4.45 -3.45 -1.70 -1.25 -8.15 -6.90 -10.55 -9.25 -3.75 -3.70 -11.80 -13.95 -15.60 -20 -4.55 -7.10 -8.95 -18.05 -10.90 -27 -0.55 -2.35 -1.45 -5.60 -2.05 -7.25 -1.50 -4.10 -2 -16.65 -0.75 -17.70 0.65 -0.55 0.80 -1.70 0.80 -5.80 0 -3.85 0.30 -6.35 1.20 -9.85 0.70 -2.60 1.45 -6.50 1.75 -8.70 1.05 -8.30 2.75 -13.15 8.55 -24.55 5.80 -11.35 9.90 -17.30 17.95 -25.70 6.20 -6.55 12.60 -11.95 19.30 -16.25 5.05 -3.25 15.90 -8.55 20.75 -10.20 1.80 -0.60 4.70 -1.70 6.50 -2.50 2 -0.90 5 -1.65 7.75 -2 2.50 -0.35 7.40 -1.15 10.95 -1.80 7.50 -1.40 17.25 -1.60 23.30 -0.45 2.05 0.40 6.80 1.20 10.50 1.80 3.90 0.60 8.20 1.60 10.25 2.45 1.95 0.75 4.85 1.75 6.50 2.25 3.35 0.95 15.85 7.15 20.65 10.25 3.75 2.45 5.25 4.55 4.80 6.75 -0.40 1.90 -1.15 3 -5.75 8.75 -5.05 6.25 -8.35 9.40 -10.20 9.75 -1.50 0.30 -4.75 -1.15 -12 -5.25 -1.35 -0.75 -3.65 -1.75 -5.05 -2.15 -1.40 -0.40 -3.70 -1.35 -5.10 -2.05 -1.85 -0.95 -4.55 -1.60 -9.45 -2.35 -14.45 -2.15 -32.15 -0.90 -40.75 2.85 -2.10 0.95 -4.10 1.70 -4.40 1.70 -0.60 0 -4.35 1.80 -10.25 5 -4.55 2.45 -10.05 6.70 -14.75 11.45 -6.15 6.15 -14.45 18.50 -16.75 24.85 -0.50 1.35 -1.65 4.05 -2.55 5.95 -1.45 3.15 -1.70 4.35 -2.40 12 -0.45 4.70 -0.90 9.70 -1.05 11.15 -0.25 2.35 -0.10 2.85 1 4.20 0.70 0.80 1.25 1.95 1.25 2.55 0.05 0.60 0.25 3.40 0.50 6.20 0.40 4.60 0.70 5.70 3.30 11.50 3.65 8.30 5.30 11.55 7.90 15.60 1.20 1.80 2.90 4.50 3.75 5.90 3.80 6.10 15.05 14.85 25.45 19.75 8.10 3.80 12.70 5.35 20.85 6.95 9.10 1.80 14.15 1.90 23.65 0.45 13.40 -2.05 14.40 -2.30 25.95 -7.40 10.15 -4.45 9.80 -3.90 10.20 -16.35 0.30 -10.10 0.55 -11.30 3.05 -13.60 1.60 -1.50 9.95 -5.60 13.65 -6.65 1.65 -0.50 4.40 -1.45 6.10 -2.20 1.75 -0.70 4.05 -1.30 5.25 -1.30 2.60 0 5.20 1.45 6.05 3.40 0.40 1 0.60 7.25 0.60 23.35 0 25.40 0.35 23.55 -5.15 27.90 -5.40 4.30 -14.65 10.60 -17.60 12 -1.50 0.70 -3.65 1.85 -4.75 2.50 -5.75 3.35 -12.60 5.80 -25.75 9.25 l-10.75 2.80 -15.50 0.10 c-8.50 0.05 -16.70 -0.10 -18.15 -0.35z"/>
 </g>
 <g fill="#bfbfc1">
  <path d="M114.65 222 c-1.40 -0.20 -4.10 -0.85 -6 -1.40 -1.85 -0.55 -4.75 -1.30 -6.40 -1.60 -8.55 -1.75 -19.90 -6.25 -29.30 -11.65 -7.80 -4.50 -20.45 -15.05 -26.05 -21.70 -12.45 -14.90 -19.10 -27.70 -22.60 -43.40 -0.65 -3.05 -1.50 -6.15 -1.80 -7 -1.50 -3.90 -2.25 -15.70 -1.05 -16.90 0.35 -0.35 0.55 -2.60 0.55 -5.65 0 -3.80 0.30 -6.30 1.20 -9.80 0.70 -2.60 1.45 -6.50 1.75 -8.70 1.05 -8.30 2.75 -13.15 8.55 -24.55 5.80 -11.35 9.90 -17.30 17.95 -25.70 6.20 -6.55 12.60 -11.95 19.30 -16.25 5.05 -3.25 15.90 -8.55 20.75 -10.20 1.80 -0.60 4.70 -1.70 6.50 -2.50 2 -0.90 5 -1.65 7.75 -2 2.50 -0.35 7.40 -1.15 10.95 -1.80 7.50 -1.40 17.25 -1.60 23.30 -0.45 2.05 0.40 6.80 1.20 10.50 1.80 3.90 0.60 8.20 1.60 10.25 2.45 1.95 0.75 4.85 1.75 6.50 2.25 3.35 0.95 15.85 7.15 20.65 10.25 3.75 2.45 5.25 4.55 4.80 6.75 -0.40 1.90 -1.15 3 -5.75 8.75 -5.05 6.25 -8.35 9.40 -10.20 9.75 -1.50 0.30 -4.75 -1.15 -12 -5.25 -1.35 -0.75 -3.65 -1.75 -5.05 -2.15 -1.40 -0.40 -3.70 -1.35 -5.10 -2.05 -1.85 -0.95 -4.55 -1.60 -9.45 -2.35 -14.45 -2.15 -32.15 -0.90 -40.75 2.85 -2.10 0.95 -4.10 1.70 -4.40 1.70 -0.60 0 -4.35 1.80 -10.25 5 -4.55 2.45 -10.05 6.70 -14.75 11.45 -6.15 6.15 -14.45 18.50 -16.75 24.85 -0.50 1.35 -1.65 4.05 -2.55 5.95 -1.45 3.15 -1.70 4.35 -2.40 12 -0.45 4.70 -0.90 9.75 -1.05 11.35 -0.20 1.80 -0.10 2.95 0.25 3.15 1 0.65 1.45 2.65 2 9.10 0.50 5.60 0.75 6.90 2.35 10.40 7.20 16.05 12 23.80 18.95 30.30 9.80 9.25 24.45 16.90 37.20 19.45 2.60 0.55 6.35 1.30 8.25 1.70 5.10 1.15 10.75 1 17.95 -0.45 3.45 -0.70 6.95 -1.25 7.70 -1.25 4.85 0 24.40 -7.65 27.60 -10.80 l1.75 -1.70 0.30 -9.90 c0.30 -10.80 0.55 -11.85 3.45 -14.30 2.05 -1.70 9.45 -5.15 13.50 -6.30 1.80 -0.55 4.50 -1.50 6 -2.20 4.55 -2.15 7.80 -1.55 9.70 1.70 1 1.70 1.05 2.45 1.05 23.25 0 24.55 0.30 22.90 -4.60 27.10 -3.30 2.85 -16.85 12.15 -17.70 12.15 -0.35 0 -1.65 0.65 -2.90 1.40 -2.95 1.85 -10.80 5.40 -15.30 6.95 -1.90 0.65 -8.10 2.35 -13.75 3.75 l-10.25 2.60 -14.25 0.10 c-7.85 0.05 -15.40 -0.05 -16.85 -0.30z"/>
 </g>
 <g fill="#b3b4b5">
  <path d="M115.50 221.70 c-4 -0.75 -18.55 -4.55 -23.25 -6.05 -15 -4.90 -29.95 -14.55 -42.15 -27.15 -3.45 -3.55 -12.50 -15.55 -15 -19.85 -4.75 -8.15 -8.80 -18.50 -10.35 -26.30 -0.45 -2.25 -1.25 -5.45 -1.75 -7.10 -1.75 -5.40 -2.70 -16.25 -1.50 -17 0.30 -0.15 0.50 -2.55 0.50 -5.45 0 -3.90 0.30 -6.40 1.20 -9.90 0.70 -2.60 1.45 -6.50 1.75 -8.70 1.05 -8.30 2.75 -13.15 8.55 -24.55 5.80 -11.35 9.90 -17.30 17.95 -25.70 6.20 -6.55 12.60 -11.95 19.30 -16.25 5.05 -3.25 15.90 -8.55 20.75 -10.20 1.80 -0.60 4.70 -1.70 6.50 -2.50 2 -0.90 5 -1.65 7.75 -2 2.50 -0.35 7.40 -1.15 10.95 -1.80 7.50 -1.40 17.25 -1.60 23.30 -0.45 2.05 0.40 6.80 1.20 10.50 1.80 3.90 0.60 8.20 1.60 10.25 2.45 1.95 0.75 4.85 1.75 6.50 2.25 3.35 0.95 15.85 7.15 20.65 10.25 3.75 2.45 5.25 4.55 4.80 6.75 -0.40 1.90 -1.15 3 -5.75 8.75 -5.05 6.25 -8.35 9.40 -10.20 9.75 -1.50 0.30 -4.75 -1.15 -12 -5.25 -1.35 -0.75 -3.65 -1.75 -5.05 -2.15 -1.40 -0.40 -3.70 -1.35 -5.10 -2.05 -1.85 -0.95 -4.55 -1.60 -9.45 -2.35 -14.45 -2.15 -32.15 -0.90 -40.75 2.85 -2.10 0.95 -4.10 1.70 -4.40 1.70 -0.60 0 -4.35 1.80 -10.25 5 -4.55 2.45 -10.05 6.70 -14.75 11.45 -6.15 6.15 -14.45 18.50 -16.75 24.85 -0.50 1.35 -1.65 4.05 -2.55 5.95 -1.45 3.15 -1.70 4.35 -2.40 12 -0.45 4.70 -0.90 9.70 -1.05 11.20 -0.20 2 -0.10 2.90 0.45 3.50 0.55 0.60 1 3.25 1.50 8.55 0.75 8.40 0.25 6.90 6.20 19.60 8.05 17.10 18.65 27.65 36.15 35.85 5.80 2.70 11.85 4.75 15.70 5.30 1.40 0.15 4.60 0.90 7.20 1.55 6 1.55 12.55 1.60 18.50 0.20 2.35 -0.55 6.55 -1.35 9.40 -1.75 5.90 -0.85 10.55 -2.30 17.80 -5.55 12.40 -5.60 11.50 -4.30 11.85 -17.25 0.25 -9.65 0.30 -9.85 1.65 -11.90 1.10 -1.70 2.35 -2.55 6.85 -4.80 3 -1.50 6.50 -2.95 7.80 -3.25 1.30 -0.30 3.90 -1.20 5.75 -2 5.20 -2.30 8.15 -1.85 9.80 1.45 0.80 1.60 0.90 3.85 1.05 21.10 0.25 23.30 0.15 24.15 -3.45 27.50 -3.40 3.25 -13.45 10.20 -19.30 13.35 -11 5.95 -18.65 8.75 -33.65 12.40 l-7.75 1.90 -14.50 0.10 c-7.95 0.05 -15.05 0 -15.75 -0.10z"/>
 </g>
 <g fill="#a2a4a4">
  <path d="M115 221 c-1.25 -0.20 -3.15 -0.65 -4.25 -0.95 -1.10 -0.30 -4.05 -1 -6.60 -1.55 -10 -2.10 -21.80 -6.70 -30.90 -12 -5.70 -3.35 -14.25 -10.10 -20.35 -16.10 -14.30 -14 -24.20 -31.55 -28.10 -49.80 -0.70 -3.20 -1.65 -7.10 -2.10 -8.60 -0.70 -2.25 -0.85 -4.65 -0.80 -13.60 0.10 -9.65 0.25 -11.30 1.30 -15.50 0.70 -2.60 1.45 -6.50 1.75 -8.70 1.05 -8.30 2.75 -13.15 8.55 -24.55 5.80 -11.35 9.90 -17.30 17.95 -25.70 6.20 -6.55 12.60 -11.95 19.30 -16.25 5.05 -3.25 15.90 -8.55 20.75 -10.20 1.80 -0.60 4.70 -1.70 6.50 -2.50 2 -0.90 5 -1.65 7.75 -2 2.50 -0.35 7.40 -1.15 10.95 -1.80 7.50 -1.40 17.25 -1.60 23.30 -0.45 2.05 0.40 6.80 1.20 10.50 1.80 3.90 0.60 8.20 1.60 10.25 2.45 1.95 0.75 4.85 1.75 6.50 2.25 3.35 0.95 15.85 7.15 20.65 10.25 3.75 2.45 5.25 4.55 4.80 6.75 -0.40 1.90 -1.15 3 -5.75 8.75 -5.05 6.25 -8.35 9.40 -10.20 9.75 -1.50 0.30 -4.75 -1.15 -12 -5.25 -1.35 -0.75 -3.65 -1.75 -5.05 -2.15 -1.40 -0.40 -3.70 -1.35 -5.10 -2.05 -1.85 -0.95 -4.55 -1.60 -9.45 -2.35 -14.45 -2.15 -32.15 -0.90 -40.75 2.85 -2.10 0.95 -4.10 1.70 -4.40 1.70 -0.60 0 -4.35 1.80 -10.25 5 -4.55 2.45 -10.05 6.70 -14.75 11.45 -6.15 6.15 -14.45 18.50 -16.75 24.85 -0.50 1.35 -1.65 4.05 -2.55 5.95 -1.45 3.15 -1.70 4.35 -2.40 12 -0.45 4.70 -0.90 9.65 -1.05 11.10 -0.15 1.40 -0.05 3.15 0.25 3.90 0.25 0.70 0.85 4.55 1.25 8.60 0.65 6.20 1 7.90 2.45 11.10 0.90 2.10 1.95 4.60 2.35 5.55 2.15 5.70 9.80 17.85 13.90 22.15 6.20 6.55 13.65 11.75 23.30 16.40 7.20 3.45 10.90 4.75 15.80 5.50 2 0.30 5.40 1.10 7.60 1.75 5.60 1.65 13 1.65 20.30 0 2.90 -0.70 7.65 -1.60 10.55 -2.05 5.25 -0.85 7.75 -1.70 18.50 -6.50 5.15 -2.25 7.05 -3.55 8.15 -5.50 0.35 -0.60 0.70 -4.90 0.85 -10.85 l0.25 -9.80 1.55 -1.95 c1.75 -2.20 10 -6.75 13.95 -7.70 1.40 -0.30 4 -1.20 5.85 -2 3.70 -1.60 6.15 -1.85 7.75 -0.70 2.25 1.55 2.40 3.20 2.40 25 0 23.70 0.20 22.50 -4.90 26.60 -5 4 -13.95 9.90 -18.70 12.30 -11.80 6.05 -18.45 8.40 -33.40 11.90 -6.95 1.65 -7.10 1.65 -21 1.75 -7.70 0.05 -15 -0.05 -16.25 -0.30z"/>
 </g>
 <g fill="#2563EB">
  <path d="M114.25 220.25 c-1.65 -0.35 -5.60 -1.20 -8.75 -1.90 -3.15 -0.70 -7.90 -1.95 -10.50 -2.75 -2.60 -0.85 -5.25 -1.65 -5.90 -1.85 -1.80 -0.50 -12 -5.50 -15.70 -7.70 -7.95 -4.65 -20.05 -14.85 -25.50 -21.40 -6.20 -7.45 -11.85 -15.75 -14.60 -21.35 -3.50 -7.15 -7.05 -17.15 -8.10 -22.70 -0.40 -2.40 -1.25 -6.05 -1.80 -8.10 -0.80 -3 -1.05 -5.90 -1.20 -14.25 -0.25 -10 -0.20 -10.70 1 -15.25 0.70 -2.65 1.45 -6.60 1.75 -8.80 1.05 -8.30 2.75 -13.15 8.55 -24.55 5.80 -11.35 9.90 -17.30 17.95 -25.70 6.20 -6.55 12.60 -11.95 19.30 -16.25 5.05 -3.25 15.90 -8.55 20.75 -10.20 1.80 -0.60 4.70 -1.70 6.50 -2.50 2 -0.90 5 -1.65 7.75 -2 2.50 -0.35 7.40 -1.15 10.95 -1.80 7.50 -1.40 17.25 -1.60 23.30 -0.45 2.05 0.40 6.80 1.20 10.50 1.80 3.90 0.60 8.20 1.60 10.25 2.45 1.95 0.75 4.85 1.75 6.50 2.25 3.35 0.95 15.85 7.15 20.65 10.25 3.75 2.45 5.25 4.55 4.80 6.75 -0.40 1.90 -1.15 3 -5.75 8.75 -5.05 6.25 -8.35 9.40 -10.20 9.75 -1.50 0.30 -4.75 -1.15 -12 -5.25 -1.35 -0.75 -3.65 -1.75 -5.05 -2.15 -1.40 -0.40 -3.70 -1.35 -5.10 -2.05 -1.85 -0.95 -4.55 -1.60 -9.45 -2.35 -14.45 -2.15 -32.15 -0.90 -40.75 2.85 -2.10 0.95 -4.10 1.70 -4.40 1.70 -0.60 0 -4.35 1.80 -10.25 5 -4.55 2.45 -10.05 6.70 -14.75 11.45 -6.15 6.15 -14.45 18.50 -16.75 24.85 -0.50 1.35 -1.65 4.05 -2.55 5.95 -1.50 3.20 -1.70 4.25 -2.45 12.50 -1.05 11.75 -1.20 13.15 -1.75 13.50 -0.25 0.15 -0.10 1.10 0.30 2.05 0.40 1 1.20 5.05 1.70 8.95 0.75 5.70 1.25 7.75 2.40 10.10 0.80 1.60 1.75 3.80 2.10 4.85 1.70 5.20 9.70 18 14.20 22.70 3.85 4.05 8.90 8.20 14.10 11.50 6.05 3.90 16.15 8.55 20.85 9.60 6.80 1.55 10.45 2.45 13.35 3.25 4.40 1.20 13.30 1 19 -0.45 2.60 -0.70 6.55 -1.50 8.75 -1.80 6.55 -0.95 9.60 -1.90 17.25 -5.40 1.80 -0.80 4.40 -1.95 5.75 -2.55 1.40 -0.60 3.15 -1.70 3.95 -2.45 2.45 -2.35 2.80 -3.80 2.80 -12.70 0 -8.80 0.35 -10.90 2.10 -12.80 1.50 -1.55 9.90 -5.80 13.70 -6.85 1.60 -0.45 4.60 -1.50 6.65 -2.35 3.55 -1.45 3.80 -1.45 5.35 -0.75 2.85 1.40 2.95 2.25 2.95 25.10 0 23.95 0.30 22.55 -5.40 26.90 -15.85 12.05 -30.45 18.90 -48.10 22.60 -3.30 0.70 -6.80 1.55 -7.75 1.85 -2.75 0.85 -29.50 1 -33.25 0.15z"/>
  <path d="M138.90 151.50 c-1 -0.55 -7.05 -6.35 -13.45 -12.85 -6.45 -6.55 -15.10 -15.30 -19.25 -19.50 -8.40 -8.35 -9.30 -9.80 -8 -12.80 1.05 -2.55 12.45 -13.35 14.85 -14.10 0.55 -0.20 1.85 -0.20 2.85 0 1.55 0.30 3.50 2.05 12.75 11.50 12.90 13.20 14.90 14.95 17.15 14.95 1.65 0 7.65 -3.80 20.20 -12.75 2.35 -1.65 7.50 -5.20 11.50 -7.85 4 -2.65 9.40 -6.45 12.05 -8.40 2.60 -2 6.85 -4.95 9.40 -6.65 5.65 -3.70 7.60 -3.95 10.95 -1.55 3.15 2.35 12.10 14.85 12.10 16.90 0 1.80 -2.85 4.45 -9.95 9.15 -3.75 2.50 -7.70 5.30 -8.80 6.15 -1.95 1.60 -5.35 3.90 -10.75 7.40 -10.60 6.85 -18.70 12.25 -24.55 16.45 -3.75 2.65 -7.60 5.25 -8.50 5.70 -0.95 0.50 -2.50 1.50 -3.45 2.25 -0.95 0.70 -3.85 2.50 -6.35 4 -5.45 3.10 -7.90 3.55 -10.75 2z"/>
 </g>
 <g fill="#959697">
  <path d="M114.25 220.25 c-1.65 -0.35 -5.60 -1.20 -8.75 -1.90 -3.15 -0.70 -7.90 -1.95 -10.50 -2.75 -2.60 -0.85 -5.25 -1.65 -5.90 -1.85 -1.80 -0.50 -12 -5.50 -15.70 -7.70 -7.95 -4.65 -20.05 -14.85 -25.50 -21.40 -6.20 -7.45 -11.85 -15.75 -14.60 -21.35 -3.50 -7.15 -7.05 -17.15 -8.10 -22.70 -0.40 -2.40 -1.25 -6.05 -1.80 -8.10 -1.20 -4.60 -1.55 -13.25 -0.60 -16.50 3 -10.65 4.15 -15.85 4.45 -19.60 0.15 -2.40 0.75 -6 1.30 -8 1.15 -4.15 5.10 -12.75 7.45 -16.15 0.85 -1.25 2.20 -3.80 2.95 -5.65 2.60 -6.25 7.80 -13.25 16.10 -21.65 8.35 -8.50 13.55 -12.90 18.85 -16 3 -1.75 5.50 -2.85 18.10 -8.05 2.05 -0.85 5.75 -2.40 8.15 -3.50 3.90 -1.70 5.25 -2 11.75 -2.70 11.65 -1.25 20.60 -1.45 25.60 -0.45 2.35 0.45 7.05 1.10 10.50 1.50 3.50 0.45 7.80 1.30 9.75 1.95 1.95 0.70 4.90 1.60 6.55 2 3.25 0.85 21.60 9.55 23.85 11.35 1.95 1.50 1.80 3.80 -0.25 6.35 -0.90 1.10 -3 3.70 -4.60 5.80 -3.20 4.15 -5.35 5.80 -7.65 5.80 -1.85 0 -6.95 -2 -9.45 -3.70 -1.05 -0.70 -2.30 -1.30 -2.80 -1.30 -0.45 0 -2.60 -0.90 -4.70 -2 -2.55 -1.30 -5.30 -2.25 -8.05 -2.80 -2.30 -0.40 -5.40 -1.35 -6.95 -2.05 -2.30 -1.05 -4.05 -1.35 -10.60 -1.80 -10.40 -0.80 -13.95 -0.50 -18.10 1.55 -1.80 0.85 -4.70 1.90 -6.50 2.25 -1.80 0.40 -4.85 1.50 -6.80 2.50 -1.95 1.05 -3.75 1.85 -3.95 1.85 -0.20 0 -1.95 0.75 -3.90 1.70 -2 0.95 -5 2.25 -6.75 3 -3.30 1.30 -9.50 5.50 -11.50 7.75 -0.65 0.70 -3.15 4 -5.65 7.30 -2.45 3.30 -5.50 7.30 -6.70 8.90 -3.05 3.85 -6.45 9.65 -7.25 12.10 -0.35 1.10 -1.35 3.50 -2.30 5.35 -1.40 2.75 -1.95 4.90 -3 11.50 -1.40 8.85 -1.40 12.55 0 15.55 0.50 1.05 0.80 2 0.65 2.15 -0.15 0.15 0.05 1.05 0.45 2.05 0.45 0.95 1.20 5 1.70 8.90 0.75 5.70 1.25 7.75 2.40 10.10 0.80 1.60 1.75 3.80 2.10 4.85 1.70 5.20 9.70 18 14.20 22.70 3.85 4.05 8.90 8.20 14.10 11.50 6.05 3.90 16.15 8.55 20.85 9.60 6.80 1.55 10.45 2.45 13.35 3.25 4.40 1.20 13.30 1 19 -0.45 2.60 -0.70 6.55 -1.50 8.75 -1.80 6.55 -0.95 9.60 -1.90 17.25 -5.40 1.80 -0.80 4.40 -1.95 5.75 -2.55 1.40 -0.60 3.15 -1.70 3.95 -2.45 2.45 -2.35 2.80 -3.80 2.80 -12.70 0 -8.80 0.35 -10.90 2.10 -12.80 1.50 -1.55 9.90 -5.80 13.70 -6.85 1.60 -0.45 4.60 -1.50 6.65 -2.35 3.55 -1.45 3.80 -1.45 5.35 -0.75 2.85 1.40 2.95 2.25 2.95 25.10 0 23.95 0.30 22.55 -5.40 26.90 -15.85 12.05 -30.45 18.90 -48.10 22.60 -3.30 0.70 -6.80 1.55 -7.75 1.85 -2.75 0.85 -29.50 1 -33.25 0.15z"/>
 </g>
 <g fill="#2563EB">
  <path d="M115.25 220 c-12.95 -2.30 -29.70 -7.45 -36 -11.10 -0.55 -0.30 -2.90 -1.65 -5.20 -3 -8.60 -5 -19.45 -14.10 -26.10 -21.90 -6.75 -8 -12.40 -16.45 -15.50 -23.35 -2.50 -5.55 -6.25 -16.65 -6.90 -20.40 -0.35 -1.90 -1.05 -5.30 -1.60 -7.50 -1.35 -5.20 -1.90 -14.10 -1.15 -16.90 3.05 -10.90 4.15 -15.70 4.45 -19.45 0.15 -2.40 0.75 -6 1.30 -8 1.15 -4.15 5.10 -12.75 7.45 -16.15 0.85 -1.25 2.20 -3.80 2.95 -5.65 2.60 -6.25 7.80 -13.25 16.10 -21.65 8.35 -8.50 13.55 -12.90 18.85 -16 3 -1.75 5.50 -2.85 18.10 -8.05 2.05 -0.85 5.75 -2.40 8.15 -3.50 3.90 -1.70 5.25 -2 11.75 -2.70 11.65 -1.25 20.60 -1.45 25.60 -0.45 2.35 0.45 7.05 1.10 10.50 1.50 3.50 0.45 7.80 1.30 9.75 1.95 1.95 0.70 4.90 1.60 6.55 2 3.25 0.85 21.60 9.55 23.85 11.35 1.95 1.50 1.80 3.80 -0.25 6.35 -0.90 1.10 -3 3.70 -4.60 5.80 -3.20 4.15 -5.35 5.80 -7.65 5.80 -1.85 0 -6.95 -2 -9.45 -3.70 -1.05 -0.70 -2.30 -1.30 -2.80 -1.30 -0.45 0 -2.60 -0.90 -4.70 -2 -2.55 -1.30 -5.30 -2.25 -8.05 -2.80 -2.30 -0.40 -5.40 -1.35 -6.95 -2.05 -2.30 -1.05 -4.05 -1.35 -10.60 -1.80 -10.40 -0.80 -13.95 -0.50 -18.10 1.55 -1.80 0.85 -4.70 1.90 -6.50 2.25 -1.80 0.40 -4.85 1.50 -6.80 2.50 -1.95 1.05 -3.75 1.85 -3.95 1.85 -0.20 0 -1.95 0.75 -3.90 1.70 -2 0.95 -5 2.25 -6.75 3 -3.30 1.30 -9.50 5.50 -11.50 7.75 -0.65 0.70 -3.15 4 -5.65 7.30 -2.45 3.30 -5.50 7.30 -6.70 8.90 -3.05 3.85 -6.45 9.65 -7.25 12.10 -0.35 1.10 -1.35 3.50 -2.30 5.35 -1.40 2.75 -1.95 4.90 -3 11.50 -1.35 8.40 -1.40 12.40 -0.15 15.15 0.35 0.85 0.70 2.05 0.75 2.75 0.05 0.70 0.35 2.15 0.65 3.30 0.30 1.10 0.85 4.90 1.30 8.45 0.60 4.90 1.10 7 2.20 9.20 0.80 1.55 1.70 3.70 2.05 4.80 1.75 5.55 9.80 18.10 14.95 23.40 7.05 7.30 12.20 10.90 23.45 16.40 6 2.95 8.25 3.75 13.75 5 3.65 0.80 8.30 1.90 10.35 2.50 3.20 0.85 4.70 1 10.50 0.80 4.85 -0.20 7.65 -0.55 10 -1.30 1.80 -0.55 6.10 -1.45 9.55 -2 5.05 -0.80 7.40 -1.50 12 -3.50 16.85 -7.25 16.10 -6.35 16.45 -19.90 0.15 -5.60 0.45 -9.85 0.75 -10.05 0.30 -0.20 0.55 -0.70 0.65 -1.10 0.10 -0.40 0.45 -1.05 0.75 -1.40 0.90 -1.10 11.05 -6 13.70 -6.65 1.30 -0.30 4.15 -1.25 6.25 -2.10 3.70 -1.45 3.85 -1.50 5.15 -0.65 0.70 0.45 1.55 1.45 1.85 2.20 0.70 1.60 0.90 40.20 0.25 43.25 -0.55 2.55 -2.50 4.40 -10.70 9.95 -14.75 10.10 -27.10 15.25 -46.15 19.20 -8.20 1.70 -8.35 1.70 -21 1.65 -7 -0.05 -13.65 -0.25 -14.75 -0.45z"/>
  <path d="M140.80 148.50 c-0.80 -0.25 -2.35 -1.20 -3.50 -2.10 -4.05 -3.20 -17.95 -17.25 -22.40 -22.50 -2.45 -2.95 -5 -5.80 -5.60 -6.25 -3.80 -3 -7.30 -6.45 -7.80 -7.70 -1 -2.30 -0.25 -3.65 4.30 -8.05 5.25 -5.05 6.45 -5.90 8.70 -5.90 1.60 0 2.35 0.60 8.50 6.95 10.20 10.45 20.45 19.05 22.75 19.05 2.60 0 13.95 -6.75 21.50 -12.80 4.25 -3.35 12.05 -8.55 15.60 -10.40 1.45 -0.70 3.70 -2.20 5 -3.35 5.95 -5 16.65 -12.45 17.95 -12.45 2.05 0 10.30 9.45 12.20 14.05 0.55 1.35 0.55 1.70 -0.35 2.85 -0.55 0.75 -2.90 2.35 -5.25 3.60 -2.30 1.30 -7.05 4.50 -10.45 7.20 -6.80 5.35 -8.65 6.60 -18.15 12.10 -3.50 2.05 -7.55 4.70 -8.95 5.85 -1.40 1.15 -4 3.30 -5.70 4.75 -2.90 2.35 -5.90 4.45 -14.15 9.70 -2.70 1.70 -9.75 5.05 -11.75 5.55 -0.55 0.15 -1.65 0.05 -2.45 -0.15z"/>
 </g>
 <g fill="#858788">
  <path d="M115.25 220 c-12.95 -2.30 -29.70 -7.45 -36 -11.10 -0.55 -0.30 -2.90 -1.65 -5.20 -3 -8.60 -5 -19.45 -14.10 -26.10 -21.90 -6.75 -8 -12.40 -16.45 -15.50 -23.35 -2.50 -5.55 -6.25 -16.65 -6.90 -20.40 -0.35 -1.90 -1 -5.20 -1.55 -7.25 -1.15 -4.80 -1.50 -7.30 -1.55 -12.30 -0.05 -3.60 0.10 -4.35 1.30 -6.50 3.20 -5.60 4.90 -6.95 5.55 -4.45 0.85 3.35 6.65 5.05 12.65 3.80 1.55 -0.35 3.40 -0.70 4.10 -0.85 1.15 -0.25 1.60 0.05 3.35 2.40 1.10 1.45 2 3.20 2 3.90 0 0.70 0.25 2.15 0.55 3.30 0.30 1.10 0.85 4.90 1.30 8.45 0.60 4.90 1.10 7 2.20 9.20 0.80 1.55 1.70 3.70 2.05 4.80 1.75 5.55 9.80 18.10 14.95 23.40 7.05 7.30 12.20 10.90 23.45 16.40 6 2.95 8.25 3.75 13.75 5 3.65 0.80 8.30 1.90 10.35 2.50 3.20 0.85 4.70 1 10.50 0.80 4.85 -0.20 7.65 -0.55 10 -1.30 1.80 -0.55 6.10 -1.45 9.55 -2 5.05 -0.80 7.40 -1.50 12 -3.50 16.85 -7.25 16.10 -6.35 16.45 -19.90 0.15 -5.60 0.45 -9.85 0.75 -10.05 0.30 -0.20 0.55 -0.70 0.65 -1.10 0.10 -0.40 0.45 -1.05 0.75 -1.40 0.90 -1.10 11.05 -6 13.70 -6.65 1.30 -0.30 4.15 -1.25 6.25 -2.10 3.70 -1.45 3.85 -1.50 5.15 -0.65 0.70 0.45 1.55 1.45 1.85 2.20 0.70 1.60 0.90 40.20 0.25 43.25 -0.55 2.55 -2.50 4.40 -10.70 9.95 -14.75 10.10 -27.10 15.25 -46.15 19.20 -8.20 1.70 -8.35 1.70 -21 1.65 -7 -0.05 -13.65 -0.25 -14.75 -0.45z"/>
 </g>
 <g fill="#2563EB">
  <path d="M119 219.55 c-8.05 -0.85 -27.30 -5.70 -32.10 -8.10 -1 -0.55 -3.15 -1.45 -4.75 -2.05 -1.60 -0.55 -4 -1.80 -5.40 -2.65 -1.35 -0.90 -4.05 -2.60 -6 -3.80 -14.30 -9 -28.65 -24.95 -36.15 -40.10 -5.60 -11.30 -10.10 -27.05 -10.95 -38.35 -0.15 -2.35 -0.60 -4.65 -0.95 -5.15 -0.75 -1.20 -0.35 -2.75 1.80 -6.35 2.75 -4.70 4.20 -5.70 4.80 -3.25 0.85 3.35 6.65 5.05 12.65 3.80 1.55 -0.35 3.40 -0.70 4.10 -0.85 1.15 -0.25 1.60 0.05 3.40 2.40 2.25 3 2.45 3.65 1.30 4.25 -0.60 0.35 -0.60 0.70 0 2.40 0.35 1.15 1.15 5.10 1.70 8.90 0.75 4.75 1.50 7.80 2.50 10 0.75 1.70 1.60 3.65 1.80 4.35 0.65 2.10 4.30 9.15 5.95 11.50 0.85 1.25 2.20 3.35 3 4.65 2.65 4.60 11.75 13.30 19.05 18.20 7.90 5.25 16.85 9.30 23.80 10.70 2.85 0.55 6.95 1.55 9.10 2.25 5.35 1.65 16.65 1.75 22.40 0.20 2.05 -0.55 6.30 -1.45 9.45 -2 7.15 -1.25 6.60 -1.10 13.25 -3.85 7.50 -3.10 12.80 -5.80 14.10 -7.20 1.85 -2.05 2.15 -3.70 2.15 -12.25 0 -7.40 0.10 -8.45 1.10 -10.60 0.60 -1.30 1.45 -2.65 1.90 -2.95 2.30 -1.90 16.25 -7.60 21.75 -8.95 1.80 -0.45 2.75 0.85 3.25 4.30 0.80 5.40 0.65 37.90 -0.20 40.65 -0.35 1.25 -0.60 2.40 -0.45 2.50 0.25 0.30 -2.20 2.05 -3.45 2.50 -0.50 0.20 -0.90 0.55 -0.90 0.85 0 0.25 -0.25 0.50 -0.50 0.50 -0.30 0 -2.35 1.30 -4.55 2.90 -2.25 1.55 -4.40 3.10 -4.85 3.35 -0.50 0.30 -0.95 0.65 -1.10 0.80 -0.15 0.15 -1.35 0.80 -2.75 1.45 -1.35 0.60 -3.75 1.90 -5.25 2.75 -1.50 0.90 -3.85 2 -5.15 2.45 -1.30 0.45 -3.45 1.35 -4.75 2 -3.15 1.55 -15.25 4.90 -23.60 6.55 -5.65 1.10 -8.40 1.35 -16.75 1.50 -5.50 0.10 -11.70 0 -13.75 -0.20z"/>
  <path d="M146.50 143.35 c-1 -0.35 -2.55 -1.20 -3.55 -1.95 -1 -0.80 -2.05 -1.40 -2.35 -1.40 -0.35 0 -0.60 -0.15 -0.60 -0.40 0 -0.50 -3.70 -1.60 -5.50 -1.60 -3.35 0 -10.80 -5.65 -12.65 -9.65 -1.10 -2.30 -0.80 -3.40 1.05 -4.20 0.75 -0.35 2.95 -1.95 4.80 -3.50 4.90 -4.10 5.15 -4.30 6.45 -3.95 0.60 0.15 3.40 1.95 6.20 4.05 4.75 3.55 5.20 3.75 7.65 3.75 2.30 0 2.85 0.20 4.85 1.95 2.50 2.25 4.85 2.90 11.55 3.40 3.75 0.25 4.10 0.40 4.10 1.35 -0.05 2.40 -14 11.95 -18.25 12.50 -1.10 0.15 -2.80 -0.05 -3.75 -0.35z"/>
  <path d="M186.65 116.40 c-0.45 -0.75 -1.65 -3.95 -1.65 -4.50 0 -0.25 0.45 -0.40 1 -0.40 0.55 0 1 -0.25 1 -0.55 0 -0.90 5.30 -0.25 6.50 0.80 1.25 1.10 0.70 2.25 -1.90 4 -1.95 1.35 -4.30 1.65 -4.95 0.65z"/>
  <path d="M103.20 108.75 c-0.45 -1.15 0.15 -2.25 1.30 -2.25 1.15 0 1.35 1.45 0.40 2.40 -0.80 0.80 -1.35 0.75 -1.70 -0.15z"/>
  <path d="M211 98.15 c-4.10 -3.25 -5.40 -4.55 -6.20 -6.10 -1.05 -1.95 -1 -2.35 0.15 -3.50 1.95 -1.95 6.10 0.40 9.25 5.20 3.55 5.30 1.45 8.10 -3.20 4.40z"/>
  <path d="M29.15 97.40 c-0.65 -1.15 -0.20 -6.60 0.90 -10.15 1.25 -4.25 2.80 -6.95 5.15 -9.20 1.75 -1.70 1.80 -1.70 3.80 -1.05 4.60 1.50 6.80 6.20 5.50 11.95 -0.90 4.05 -1.95 4.95 -7.50 6.55 -1.25 0.40 -3.10 1.10 -4.10 1.60 -2.20 1.05 -3.20 1.15 -3.75 0.30z"/>
  <path d="M57.35 70.90 c-0.15 -1.20 -0.15 -3.10 0 -4.30 0.40 -3.05 2.70 -4.60 6.75 -4.60 3.15 0 3.40 0.30 2.25 2.80 -1.85 4.25 -5.55 8.20 -7.70 8.20 -0.80 0 -1.05 -0.40 -1.30 -2.10z"/>
  <path d="M170.70 45.85 c-1.55 -0.60 -6.20 -4.20 -6.20 -4.80 0 -0.15 0.75 -0.60 1.65 -1 5.45 -2.25 10.45 -5.10 13.05 -7.40 1.80 -1.65 2.05 -1.70 4.25 -1.40 2.55 0.35 4.55 1.45 4.55 2.40 0 0.65 -5.05 7.50 -7.40 10.05 -2.50 2.65 -6.35 3.50 -9.90 2.15z"/>
  <path d="M86.50 43 c-1.10 -1.10 -2.20 -2 -2.45 -2 -0.25 0 -0.55 -0.20 -0.65 -0.50 -0.25 -0.75 -4.40 -1.30 -7.40 -0.95 -1.50 0.20 -4.35 0.35 -6.35 0.40 -3.25 0.05 -3.60 -0.05 -3.90 -1 -0.60 -1.85 5.05 -7.05 10.50 -9.70 4.55 -2.25 9.75 -3.50 9.75 -2.30 0 0.30 0.35 0.55 0.75 0.55 0.40 0 0.75 0.35 0.75 0.80 0 1 1.20 2.20 2.20 2.20 0.45 0 0.80 0.15 0.80 0.40 0 0.40 2.40 1.60 3.25 1.60 0.30 0 1.55 0.60 2.80 1.40 1.20 0.75 3.50 1.80 5.10 2.25 1.60 0.50 2.85 1.15 2.75 1.45 -0.55 1.55 -12.35 7.40 -14.95 7.40 -0.55 0 -1.85 -0.90 -2.95 -2z"/>
  <path d="M103.15 22.05 c-0.60 -0.60 -1.50 -1.05 -1.95 -1.05 -0.80 0 -0.80 -0.10 0.05 -1 2 -2.25 5 -3.10 12.15 -3.55 7.15 -0.40 12.10 -0.15 12.10 0.65 0 0.65 -1.30 1.90 -1.95 1.90 -0.30 0 -0.55 0.45 -0.55 1 0 0.85 -0.35 1 -2.50 1 -1.35 0 -2.50 0.20 -2.50 0.45 0 0.60 -3.20 1.10 -9 1.35 -4.30 0.25 -4.85 0.15 -5.85 -0.75z"/>
 </g>
 <g fill="#2563EB">
  <path d="M119 219.55 c-8.05 -0.85 -27.30 -5.70 -32.10 -8.10 -1 -0.55 -3.15 -1.45 -4.75 -2.05 -1.60 -0.55 -4 -1.80 -5.40 -2.65 -1.35 -0.90 -4.05 -2.60 -6 -3.80 -14.30 -9 -28.65 -24.95 -36.15 -40.10 -5.65 -11.30 -10.10 -27.10 -10.95 -38.35 -0.15 -2.35 -0.50 -4.50 -0.75 -4.85 -0.65 -0.80 0.70 -3.25 2.25 -4.10 1.05 -0.55 2.25 -0.55 7 -0.05 3.15 0.35 7.75 0.55 10.20 0.40 3.10 -0.20 5 -0.05 6.05 0.40 1.70 0.70 3.05 2.60 2.15 3.15 -0.35 0.25 -0.30 0.95 0.20 2.35 0.35 1.10 1.15 5.05 1.70 8.85 0.75 4.75 1.50 7.80 2.50 10 0.75 1.70 1.60 3.65 1.80 4.35 0.65 2.10 4.30 9.15 5.95 11.50 0.85 1.25 2.20 3.35 3 4.65 2.65 4.60 11.75 13.30 19.05 18.20 7.90 5.25 16.85 9.30 23.80 10.70 2.85 0.55 6.95 1.55 9.10 2.25 5.35 1.65 16.65 1.75 22.40 0.20 2.05 -0.55 6.30 -1.45 9.45 -2 7.15 -1.25 6.60 -1.10 13.25 -3.85 7.50 -3.10 12.80 -5.80 14.10 -7.20 1.85 -2.05 2.15 -3.70 2.15 -12.25 0 -7.40 0.10 -8.45 1.10 -10.60 0.60 -1.30 1.45 -2.65 1.90 -2.95 2.30 -1.90 16.25 -7.60 21.75 -8.95 1.80 -0.45 2.75 0.85 3.25 4.30 0.80 5.40 0.65 37.90 -0.20 40.65 -0.35 1.25 -0.60 2.40 -0.45 2.50 0.25 0.30 -2.20 2.05 -3.45 2.50 -0.50 0.20 -0.90 0.55 -0.90 0.85 0 0.25 -0.25 0.50 -0.50 0.50 -0.30 0 -2.35 1.30 -4.55 2.90 -2.25 1.55 -4.40 3.10 -4.85 3.35 -0.50 0.30 -0.95 0.65 -1.10 0.80 -0.15 0.15 -1.35 0.80 -2.75 1.45 -1.35 0.60 -3.75 1.90 -5.25 2.75 -1.50 0.90 -3.85 2 -5.15 2.45 -1.30 0.45 -3.45 1.35 -4.75 2 -3.15 1.55 -15.25 4.90 -23.60 6.55 -5.65 1.10 -8.40 1.35 -16.75 1.50 -5.50 0.10 -11.70 0 -13.75 -0.20z"/>
 </g>
 <g fill="#2563EB">
  <path d="M119 219.55 c-8.05 -0.85 -27.30 -5.70 -32.10 -8.10 -1 -0.55 -3.15 -1.45 -4.75 -2.05 -1.60 -0.55 -4 -1.80 -5.40 -2.65 -1.35 -0.90 -4.05 -2.60 -6 -3.80 -14.30 -9 -28.65 -24.95 -36.15 -40.10 -5.65 -11.35 -10.05 -27 -11.05 -39.05 -0.30 -4.10 -0.25 -4.60 0.70 -5.70 1.15 -1.35 0.75 -1.30 14.05 -1.15 7.95 0.15 9.30 0.25 10.65 1.10 0.90 0.55 1.50 1.15 1.35 1.35 -0.15 0.25 0.05 1.30 0.45 2.40 0.35 1.10 1.15 5.05 1.70 8.85 0.75 4.75 1.50 7.80 2.50 10 0.75 1.70 1.60 3.65 1.80 4.35 0.65 2.10 4.30 9.15 5.95 11.50 0.85 1.25 2.20 3.35 3 4.65 2.65 4.60 11.75 13.30 19.05 18.20 7.90 5.25 16.85 9.30 23.80 10.70 2.85 0.55 6.95 1.55 9.10 2.25 5.35 1.65 16.65 1.75 22.40 0.20 2.05 -0.55 6.30 -1.45 9.45 -2 7.15 -1.25 6.60 -1.10 13.25 -3.85 7.50 -3.10 12.80 -5.80 14.10 -7.20 1.85 -2.05 2.15 -3.70 2.15 -12.25 0 -7.40 0.10 -8.45 1.10 -10.60 0.60 -1.30 1.45 -2.65 1.90 -2.95 2.30 -1.90 16.25 -7.60 21.75 -8.95 1.80 -0.45 2.75 0.85 3.25 4.30 0.80 5.40 0.65 37.90 -0.20 40.65 -0.35 1.25 -0.60 2.40 -0.45 2.50 0.25 0.30 -2.20 2.05 -3.45 2.50 -0.50 0.20 -0.90 0.55 -0.90 0.85 0 0.25 -0.25 0.50 -0.50 0.50 -0.30 0 -2.35 1.30 -4.55 2.90 -2.25 1.55 -4.40 3.10 -4.85 3.35 -0.50 0.30 -0.95 0.65 -1.10 0.80 -0.15 0.15 -1.35 0.80 -2.75 1.45 -1.35 0.60 -3.75 1.90 -5.25 2.75 -1.50 0.90 -3.85 2 -5.15 2.45 -1.30 0.45 -3.45 1.35 -4.75 2 -3.15 1.55 -15.25 4.90 -23.60 6.55 -5.65 1.10 -8.40 1.35 -16.75 1.50 -5.50 0.10 -11.70 0 -13.75 -0.20z"/>
 </g>
 <g fill="#5b5c5d">
  <path d="M119 219.55 c-8.05 -0.85 -27.30 -5.70 -32.10 -8.10 -1 -0.55 -3.15 -1.45 -4.75 -2.05 -1.60 -0.55 -4 -1.80 -5.40 -2.65 -1.35 -0.90 -4.05 -2.60 -6 -3.80 -14.30 -9 -28.65 -24.95 -36.15 -40.10 -5.60 -11.20 -10.10 -26.95 -10.95 -38.20 l-0.30 -4.10 1.45 -0.60 c1.75 -0.75 23.40 -0.65 24.80 0.10 1.10 0.60 1.65 2.65 2.90 10.90 0.70 4.50 1.45 7.55 2.45 9.70 0.75 1.70 1.60 3.65 1.80 4.35 0.65 2.10 4.30 9.15 5.95 11.50 0.85 1.25 2.20 3.35 3 4.65 2.65 4.60 11.75 13.30 19.05 18.20 7.90 5.25 16.85 9.30 23.80 10.70 2.85 0.55 6.95 1.55 9.10 2.25 5.35 1.65 16.65 1.75 22.40 0.20 2.05 -0.55 6.30 -1.45 9.45 -2 7.15 -1.25 6.60 -1.10 13.25 -3.85 7.50 -3.10 12.80 -5.80 14.10 -7.20 1.85 -2.05 2.15 -3.70 2.15 -12.25 0 -7.40 0.10 -8.45 1.10 -10.60 0.60 -1.30 1.45 -2.65 1.90 -2.95 2.30 -1.90 16.25 -7.60 21.75 -8.95 1.80 -0.45 2.75 0.85 3.25 4.30 0.80 5.40 0.65 37.90 -0.20 40.65 -0.35 1.25 -0.60 2.40 -0.45 2.50 0.25 0.30 -2.20 2.05 -3.45 2.50 -0.50 0.20 -0.90 0.55 -0.90 0.85 0 0.25 -0.25 0.50 -0.50 0.50 -0.30 0 -2.35 1.30 -4.55 2.90 -2.25 1.55 -4.40 3.10 -4.85 3.35 -0.50 0.30 -0.95 0.65 -1.10 0.80 -0.15 0.15 -1.35 0.80 -2.75 1.45 -1.35 0.60 -3.75 1.90 -5.25 2.75 -1.50 0.90 -3.85 2 -5.15 2.45 -1.30 0.45 -3.45 1.35 -4.75 2 -3.15 1.55 -15.25 4.90 -23.60 6.55 -5.65 1.10 -8.40 1.35 -16.75 1.50 -5.50 0.10 -11.70 0 -13.75 -0.20z"/>
 </g>
 <g fill="#464849">
  <path d="M120.50 218.70 c-4.80 -0.45 -16.95 -2.85 -21.25 -4.20 -2.45 -0.75 -5.95 -1.85 -7.75 -2.40 -7.75 -2.40 -16.40 -6.95 -24.25 -12.75 -17.95 -13.20 -30.50 -30.05 -37.25 -50.10 -2.55 -7.50 -5.50 -21.80 -5.50 -26.55 0 -3.45 0.15 -3.45 12.70 -3.30 12.20 0.15 11.85 0.05 12.80 3.60 0.25 0.95 1 4.90 1.70 8.80 0.85 5 1.60 7.85 2.65 10 0.85 1.60 1.80 3.85 2.15 4.95 1.55 5 9.65 17.50 14.40 22.40 3.65 3.75 10 8.85 15.20 12.20 5.75 3.75 16.40 8.50 21 9.40 2.30 0.45 6.20 1.40 8.65 2.15 4.15 1.25 5.15 1.35 13.25 1.30 7.35 -0.05 9.40 -0.20 12.75 -1.10 2.20 -0.60 6.65 -1.55 9.90 -2.10 6.30 -1.05 9.90 -2.40 20.10 -7.50 3.20 -1.60 5.85 -3.30 6.45 -4.10 1.35 -1.90 1.75 -5 1.75 -14.20 0.05 -9.80 0 -9.70 7.25 -13.20 5.15 -2.45 14.95 -6 16.70 -6 2.30 0 2.35 0.50 2.50 21.55 0.10 13.25 0 20.55 -0.40 21.90 -0.40 1.60 -1.15 2.50 -3.40 4.20 -5.85 4.40 -12.75 8.95 -16.25 10.70 -1.95 0.95 -4.15 2.15 -4.85 2.65 -0.70 0.45 -2.15 1.15 -3.25 1.50 -1.10 0.35 -3.25 1.25 -4.80 2.05 -1.55 0.75 -4.60 1.85 -6.75 2.40 -2.15 0.55 -5.25 1.45 -6.85 2 -6.25 2.15 -16.90 3.65 -27.35 3.80 -5.35 0.10 -10.75 0.05 -12 -0.05z"/>
 </g>
 <g fill="#303233">
  <path d="M118.75 217.65 c-4.70 -0.60 -15.45 -2.75 -17.75 -3.55 -1.50 -0.55 -4.45 -1.35 -6.50 -1.85 -11 -2.70 -23.05 -9.65 -35.60 -20.60 -7.30 -6.35 -17.20 -18.60 -21.35 -26.40 -5.10 -9.60 -9.50 -23.10 -11.05 -33.60 -1.35 -9.40 -1.25 -11.70 0.50 -12.15 0.70 -0.20 5.70 -0.25 11.10 -0.10 l9.90 0.25 0.95 3.05 c0.50 1.65 1.45 6 2.05 9.55 1.15 6.75 2.65 10.90 7.10 19.50 3.45 6.80 9.05 14.75 13.25 18.80 6.70 6.60 17.20 13.85 23.65 16.45 1.25 0.50 3.30 1.50 4.55 2.20 1.40 0.80 4.35 1.70 7.30 2.25 2.75 0.55 6.65 1.50 8.70 2.15 3.35 1.05 4.60 1.15 13.20 1.10 8.40 0 10.15 -0.15 15 -1.35 3.05 -0.70 7.70 -1.65 10.35 -2.05 4.40 -0.70 5.75 -1.25 14.25 -5.40 5.95 -2.95 9.70 -5.10 10.25 -5.90 1.40 -1.95 1.90 -5.95 1.90 -14.60 l0 -8 1.40 -1.35 c0.80 -0.70 2.55 -1.90 3.90 -2.65 2.95 -1.60 11.95 -5 15.60 -5.95 4.55 -1.15 4.35 -2.20 4.35 21.20 0 22.70 0.20 21.40 -4 24.70 -10.70 8.40 -26.60 16.80 -36.10 19.10 -2.20 0.50 -5.70 1.50 -7.70 2.20 -6.20 2.10 -16.85 3.35 -28 3.30 -5.35 -0.05 -10.35 -0.20 -11.20 -0.30z"/>
 </g>
 <g fill="#212425">
  <path d="M118.25 216.65 c-4.65 -0.60 -13.05 -2.30 -15.35 -3.10 -1.45 -0.50 -4.55 -1.30 -6.90 -1.75 -6.65 -1.35 -17.45 -6.25 -24 -10.90 -13 -9.20 -17.70 -13.70 -27.45 -26.55 -4.75 -6.20 -6.85 -9.95 -10 -17.85 -4.80 -12.15 -7 -20.50 -7.80 -29.90 -0.20 -2.25 -0.55 -4.25 -0.80 -4.40 -0.65 -0.40 -0.55 -2.10 0.15 -2.55 0.35 -0.20 5.35 -0.30 11.15 -0.25 9.90 0.20 11.70 0.45 11 1.65 -0.15 0.15 0.30 2.85 1 6 0.65 3.15 1.45 7.30 1.75 9.20 0.30 2.05 1.30 5.25 2.45 7.75 1.10 2.35 2.35 5.05 2.75 6 1.15 2.70 3.55 6.75 7.55 12.75 3.75 5.65 8.55 10.75 13 13.75 1.40 0.95 3.50 2.50 4.75 3.55 5.15 4.20 19.15 11.10 24.15 11.95 1.90 0.30 5.30 1.15 7.50 1.90 3.95 1.30 4.50 1.35 15.10 1.35 9.70 0 11.55 -0.15 15.50 -1.10 2.50 -0.60 7.10 -1.55 10.25 -2.10 5.30 -0.90 6.50 -1.30 14.55 -5.20 5.95 -2.85 9.15 -4.70 10.05 -5.75 1.85 -2.20 2.40 -5.50 2.40 -14.35 0 -4.55 0.25 -8.20 0.55 -8.90 0.85 -1.90 7.20 -5.20 14.75 -7.70 8.55 -2.80 8.20 -3 8.80 5.45 0.60 8.65 -0.05 32.25 -0.90 33.95 -0.60 1.20 -3 3.15 -11.20 9.15 -3.05 2.20 -11 6.35 -20.25 10.50 -2.25 1 -6.05 2.25 -8.55 2.80 -2.45 0.50 -5.30 1.30 -6.30 1.70 -5.10 2.15 -15.20 3.30 -27.85 3.25 -5.65 -0.05 -10.95 -0.20 -11.80 -0.30z"/>
 </g>
 <g fill="#172033">
  <path d="M121 215.95 c-2.60 -0.20 -7.95 -1.20 -11.85 -2.15 -3.90 -1 -9 -2.15 -11.40 -2.55 -8.40 -1.50 -21.85 -7.75 -28.35 -13.15 -1.55 -1.30 -3.40 -2.75 -4.20 -3.20 -2.75 -1.65 -9.65 -8.15 -12.15 -11.50 -1.40 -1.85 -2.75 -3.45 -3.05 -3.65 -0.30 -0.15 -1.80 -2.05 -3.35 -4.15 -1.55 -2.10 -3.60 -4.70 -4.55 -5.80 -2.80 -3.15 -6.05 -11 -11.15 -26.75 -2.30 -7.20 -3.15 -12.05 -3.45 -20.10 0 -0.20 -0.45 -0.45 -1.05 -0.60 -1.50 -0.40 -1.10 -2.45 0.55 -2.85 0.70 -0.20 5.70 -0.25 11.10 -0.10 7.70 0.20 9.90 0.40 10.10 0.90 0.15 0.40 0 0.95 -0.35 1.25 -0.50 0.50 -0.40 1.50 0.45 5.05 0.60 2.40 1.40 6.05 1.70 8.05 1.20 7.40 1.60 8.85 2.75 10.50 0.60 0.95 1.30 2.30 1.50 2.90 0.45 1.45 4.15 8 7 12.45 1.15 1.80 2.65 4.25 3.35 5.50 1.70 2.90 6.30 7.55 10.15 10.15 1.65 1.10 3.95 2.75 5.10 3.70 5.30 4.25 19.65 11.85 23.40 12.35 1.40 0.20 4.75 1.15 7.50 2.15 4.35 1.55 5.75 1.80 11 2 8.50 0.35 18.35 -0.50 26 -2.25 3.60 -0.85 7.90 -1.65 9.65 -1.85 2.60 -0.30 4.65 -1.10 11.50 -4.60 4.60 -2.30 9 -4.80 9.75 -5.55 2 -1.95 2.75 -5.30 3.15 -14.60 0.15 -4.55 0.55 -8.65 0.80 -9.15 1.40 -2.70 12 -7.45 18.35 -8.20 2 -0.25 2.45 -0.10 2.85 0.65 0.50 1.15 0.90 31.35 0.45 35.20 -0.30 2.55 -0.55 2.95 -3.15 5.40 -2.95 2.75 -9.65 7.70 -13.25 9.80 -1.15 0.70 -4.55 2.25 -7.60 3.55 -3 1.25 -7.40 3.15 -9.75 4.25 -2.35 1.05 -5.75 2.15 -7.65 2.50 -1.85 0.30 -4 0.75 -4.75 1.05 -2.85 1.15 -8.05 2.40 -12.35 2.95 -5.55 0.75 -18.35 1 -24.75 0.45z"/>
 </g>
 <g fill="#151a1c">
  <path d="M121 215.95 c-2.60 -0.20 -7.95 -1.20 -11.85 -2.15 -3.90 -1 -9 -2.15 -11.40 -2.55 -8.40 -1.50 -21.85 -7.75 -28.35 -13.15 -1.55 -1.30 -3.40 -2.75 -4.20 -3.20 -2.75 -1.65 -9.65 -8.15 -12.15 -11.50 -1.40 -1.85 -2.75 -3.45 -3.05 -3.65 -0.30 -0.15 -1.80 -2.05 -3.35 -4.15 -1.55 -2.10 -3.60 -4.70 -4.55 -5.80 -2.80 -3.15 -6.05 -11 -11.15 -26.75 -2.15 -6.60 -2.55 -8.60 -2.95 -13.95 -0.25 -3.40 -0.40 -6.40 -0.25 -6.60 0.10 -0.20 4.55 -0.30 9.85 -0.25 l9.65 0.05 0.55 2 c0.50 1.75 1.95 9 3.30 16.55 0.25 1.45 1 3.40 1.65 4.30 0.60 0.95 1.30 2.30 1.50 2.90 0.45 1.45 4.15 8 7 12.45 1.15 1.80 2.65 4.25 3.35 5.50 1.70 2.90 6.30 7.55 10.15 10.15 1.65 1.10 3.95 2.75 5.10 3.70 5.30 4.25 19.65 11.85 23.40 12.35 1.40 0.20 4.75 1.15 7.50 2.15 4.35 1.55 5.75 1.80 11 2 8.50 0.35 18.35 -0.50 26 -2.25 3.60 -0.85 7.90 -1.65 9.65 -1.85 2.60 -0.30 4.65 -1.10 11.50 -4.60 4.60 -2.30 9 -4.80 9.75 -5.55 2 -1.95 2.75 -5.30 3.15 -14.60 0.15 -4.55 0.55 -8.65 0.80 -9.15 1.40 -2.70 12 -7.45 18.35 -8.20 2 -0.25 2.45 -0.10 2.85 0.65 0.50 1.15 0.90 31.35 0.45 35.20 -0.30 2.55 -0.55 2.95 -3.15 5.40 -2.95 2.75 -9.65 7.70 -13.25 9.80 -1.15 0.70 -4.55 2.25 -7.60 3.55 -3 1.25 -7.40 3.15 -9.75 4.25 -2.35 1.05 -5.75 2.15 -7.65 2.50 -1.85 0.30 -4 0.75 -4.75 1.05 -2.85 1.15 -8.05 2.40 -12.35 2.95 -5.55 0.75 -18.35 1 -24.75 0.45z"/>
 </g>
 <g fill="#0d1011">
  <path d="M129.75 215.45 c-7.55 -0.25 -10.25 -0.80 -10.25 -1.95 0 -0.25 1 -1.15 2.25 -2 2.25 -1.55 3.25 -3 4.50 -6.55 l0.70 -1.95 -2.30 -2.25 c-3.20 -3.05 -3.35 -3 6.35 -3.75 12.95 -1 12.80 -0.95 16.30 -1.75 0.55 -0.10 2.10 -0.35 3.45 -0.50 1.35 -0.20 2.80 -0.50 3.20 -0.70 0.45 -0.25 1.80 -0.25 3.05 -0.05 l2.25 0.35 -1.75 0.80 c-2.30 1 -4 2.65 -4 3.85 0 1.60 1.05 3.35 2.45 4.05 0.70 0.40 2.10 1.15 3.05 1.75 0.95 0.60 2.65 1.40 3.75 1.70 2.95 0.95 3.70 1.55 3.20 2.75 -0.20 0.55 -0.40 0.80 -0.40 0.55 -0.05 -0.25 -0.35 -0.15 -0.75 0.15 -0.40 0.35 -1 0.55 -1.40 0.50 -0.95 -0.15 -4.30 0.55 -7.40 1.65 -1.50 0.55 -3.15 1.05 -3.60 1.20 -0.50 0.10 -1.35 0.30 -1.90 0.45 -6.50 1.60 -11.60 2.05 -20.75 1.70z"/>
  <path d="M88.45 207.30 c-0.10 -0.15 -0.80 -0.35 -1.50 -0.45 -5.95 -1.10 -17.30 -8.50 -26.55 -17.30 -2.40 -2.30 -4.25 -4.40 -4.10 -4.60 0.15 -0.25 0 -0.45 -0.25 -0.45 -0.30 0 -0.55 -0.25 -0.55 -0.55 0 -0.25 0.20 -0.40 0.45 -0.25 0.25 0.20 0.55 0.05 0.65 -0.25 0.10 -0.30 2.20 -0.85 4.65 -1.30 2.50 -0.40 6.20 -1.40 8.25 -2.25 4.75 -1.85 6.45 -1.70 10.15 1 1.50 1.15 5.25 3.45 8.35 5.15 4.90 2.70 9.80 5.65 11.25 6.85 0.30 0.25 0.85 0.35 1.25 0.25 0.50 -0.15 0.50 0 -0.15 0.50 -0.50 0.40 -1.70 0.90 -2.75 1.10 -3.20 0.60 -5.60 4.25 -6.05 9.25 -0.30 3 -0.40 3.25 -1.55 3.40 -0.70 0.10 -1.40 0.05 -1.55 -0.10z"/>
  <path d="M177.75 203.50 c0.15 -0.25 -0.05 -0.50 -0.45 -0.50 -0.45 0 -1.35 -0.85 -2 -1.90 -0.65 -1.10 -1.50 -2.25 -1.90 -2.65 -0.35 -0.40 -1.30 -1.55 -2.10 -2.65 -0.80 -1.05 -2.15 -2.35 -3.05 -2.90 -1.60 -0.90 -2.10 -2.65 -0.80 -2.65 0.30 0 0.75 -0.25 0.95 -0.55 0.35 -0.50 6.35 -4.20 9.10 -5.60 2.50 -1.30 3.90 -4.35 5.25 -11.60 0.15 -0.95 0.35 -2 0.35 -2.35 0.05 -0.35 0.20 -0.50 0.40 -0.40 0.15 0.10 2.55 0.35 5.25 0.50 2.75 0.20 5.30 0.60 5.65 0.85 0.35 0.30 0.70 0.45 0.80 0.35 0.10 -0.10 0.30 -2.70 0.50 -5.70 0.40 -6.75 0.05 -7.50 -4.25 -8.05 -1.50 -0.20 -3 -0.55 -3.30 -0.85 -0.60 -0.45 -0.90 0.10 -0.70 1.30 0 0.20 -0.30 0.35 -0.70 0.35 -0.40 0 -0.75 -0.20 -0.75 -0.45 0 -0.75 4 -4.10 4.50 -3.80 0.30 0.20 0.50 0.05 0.50 -0.25 0 -0.30 0.20 -0.45 0.45 -0.25 0.25 0.15 0.60 0.05 0.80 -0.25 0.20 -0.30 0.55 -0.40 0.80 -0.25 0.25 0.20 0.45 0.10 0.45 -0.15 0 -0.25 0.30 -0.45 0.65 -0.50 1.20 -0.10 4.10 -0.60 6.25 -1.05 2.45 -0.50 2.60 -0.30 3.05 2.65 0.40 2.85 0.35 17.55 -0.05 23.30 -0.20 2.60 -0.35 5.95 -0.40 7.35 0 2.60 -0.05 2.65 -3.90 6.50 -3.75 3.70 -8.10 7.15 -12.25 9.60 -2.20 1.35 -6.65 2.60 -7.65 2.20 -0.40 -0.15 -0.70 0 -0.70 0.30 0 0.30 -0.25 0.55 -0.55 0.55 -0.25 0 -0.35 -0.20 -0.20 -0.50z m22.25 -25.35 c0 -1.15 -0.10 -1.25 -0.55 -0.65 -0.40 0.60 -0.60 0.60 -0.80 0.10 -0.40 -1 -2.25 -2.60 -3 -2.60 -0.35 0 -0.65 -0.35 -0.65 -0.75 0 -0.40 -0.30 -0.75 -0.70 -0.75 -0.35 0 -0.95 -0.35 -1.30 -0.75 -0.40 -0.50 -1.45 -0.75 -2.95 -0.70 -2.10 0.05 -2.15 0.10 -0.80 0.45 2.75 0.70 4 1.40 5 2.70 0.55 0.70 1.30 1.30 1.70 1.30 0.70 0 2.55 1.85 2.55 2.60 0 0.20 0.35 0.40 0.75 0.40 0.50 0 0.75 -0.50 0.75 -1.35z m-1.95 -7.55 c-0.30 -0.60 -0.60 -3.45 -0.60 -6.45 -0.10 -5.40 -0.10 -5.40 -0.50 -1.90 -0.20 1.95 -0.25 4.30 -0.10 5.25 0.25 2.05 1.20 4.65 1.50 4.30 0.15 -0.10 0 -0.65 -0.30 -1.20z"/>
  <path d="M96.45 196 c0.65 -0.55 1.55 -1 2 -0.95 0.45 0 0.20 0.25 -0.55 0.55 -0.80 0.25 -1.40 0.70 -1.40 0.95 0 0.25 -0.30 0.45 -0.60 0.45 -0.35 -0.05 -0.10 -0.50 0.55 -1z"/>
  <path d="M161.70 193.95 c0 -0.65 0.35 -0.95 1.15 -0.95 0.65 0 1.15 0.20 1.15 0.40 0 0.25 -0.50 0.65 -1.15 0.95 -0.95 0.45 -1.15 0.40 -1.15 -0.40z"/>
  <path d="M101.50 194 c0 -0.25 0.35 -0.50 0.75 -0.50 0.40 0 0.75 0.25 0.75 0.50 0 0.30 -0.35 0.50 -0.75 0.50 -0.40 0 -0.75 -0.20 -0.75 -0.50z"/>
  <path d="M45.10 170.65 c-0.75 -0.80 -1.80 -1.60 -2.35 -1.90 -0.55 -0.25 -1.95 -2.40 -3.10 -4.75 -2.10 -4.35 -3.05 -8.20 -2.25 -9.45 0.25 -0.35 1.70 -0.75 3.15 -0.90 1.80 -0.15 3.90 -0.90 6.40 -2.25 2.45 -1.30 4.15 -1.85 4.85 -1.70 2.35 0.60 9.25 11.50 9.15 14.40 0 0.65 -0.15 0.90 -0.30 0.55 -0.15 -0.40 -0.50 -0.45 -1.05 -0.15 -1.85 0.95 -5.45 2.40 -7.45 3 -2.70 0.80 -6 3.45 -5.05 4.05 0.50 0.35 0.50 0.45 0 0.45 -0.35 0 -1.25 -0.60 -2 -1.35z m1.15 -17.50 c1.40 -0.70 3.40 -1.60 4.50 -2 l2 -0.65 -2.05 0.25 c-1.15 0.10 -3.15 0.85 -4.45 1.60 -1.30 0.70 -3.65 1.60 -5.20 1.95 l-2.80 0.65 2.75 -0.25 c1.50 -0.20 3.90 -0.85 5.25 -1.55z"/>
  <path d="M32.65 144.65 c0.15 -0.20 -0.15 -1.25 -0.65 -2.30 -1.65 -3.40 -2.50 -6.60 -2.50 -9.35 0.05 -3.60 0.20 -5.40 0.50 -5.40 0.15 0 2.05 0 4.30 -0.05 3.65 -0.05 4.25 -0.20 6.95 -1.80 1.60 -1 3.30 -1.70 3.70 -1.65 0.80 0.15 1.95 2.10 2.30 3.90 0.10 0.55 0.35 1.25 0.55 1.55 1.20 2 2.25 11.05 1.30 11.65 -0.25 0.15 -1.75 0.10 -3.40 -0.10 l-2.95 -0.35 3.25 -0.30 3.25 -0.30 -3.35 -0.05 c-4.75 -0.15 -7.80 0.65 -10.35 2.65 -1.20 0.95 -2 1.75 -1.70 1.75 0.25 0 0.75 -0.30 1.10 -0.60 0.55 -0.55 0.65 -0.50 0.45 0.10 -0.15 0.40 -0.85 0.80 -1.60 0.90 -0.80 0.10 -1.30 0 -1.15 -0.25z"/>
  <path d="M36.20 142.75 c0.55 -0.40 1.20 -0.75 1.50 -0.75 0.25 0 0.05 0.35 -0.50 0.75 -0.50 0.40 -1.15 0.70 -1.45 0.70 -0.25 0 -0.05 -0.30 0.45 -0.70z"/>
 </g>
</svg>